<svg width="48" height="48" viewBox="0 0 48 48" fill="none" xmlns="http://www.w3.org/2000/svg">
<rect width="48" height="48" rx="24" fill="white"/>
<path d="M16.233 24.6932V31H13.2074V16.4545H16.1477V22.0156H16.2756C16.5218 21.3717 16.9195 20.8674 17.4688 20.5028C18.018 20.1335 18.7069 19.9489 19.5355 19.9489C20.2931 19.9489 20.9536 20.1146 21.517 20.446C22.0852 20.7727 22.5256 21.2438 22.8381 21.8594C23.1553 22.4702 23.3116 23.2017 23.3068 24.054V31H20.2812V24.5938C20.286 23.9214 20.1155 23.3982 19.7699 23.0241C19.429 22.6501 18.9508 22.4631 18.3352 22.4631C17.9233 22.4631 17.5587 22.5507 17.2415 22.7259C16.929 22.901 16.6828 23.1567 16.5028 23.4929C16.3277 23.8243 16.2377 24.2244 16.233 24.6932ZM25.631 31V29.196L30.9719 22.5838V22.5057H25.8157V20.0909H34.6154V22.0582L29.6012 28.5071V28.5852H34.8001V31H25.631Z" fill="black"/>
</svg>
